HIERARCHY
ROOT Hips
{
	OFFSET 0.0000 0.0000 0.0000
	CHANNELS 6 Xposition Yposition Zposition Zrotation Xrotation Yrotation
	JOINT Ab
	{
		OFFSET -0.0000 8.1305 -0.0000
		CHANNELS 3 Zrotation Xrotation Yrotation
		JOINT Chest
		{
			OFFSET -0.0000 26.2902 -0.0000
			CHANNELS 3 Zrotation Xrotation Yrotation
			JOINT Neck
			{
				OFFSET -0.0000 26.2902 0.0000
				CHANNELS 3 Zrotation Xrotation Yrotation
				JOINT Head
				{
					OFFSET -0.0000 10.8167 0.0000
					CHANNELS 3 Zrotation Xrotation Yrotation
					End Site
					{
						OFFSET -0.0000 16.7167 0.0000
					}
				}
			}
			JOINT LeftCollar
			{
				OFFSET -0.0000 26.2902 0.0000
				CHANNELS 3 Zrotation Xrotation Yrotation
				JOINT LeftShoulder
				{
					OFFSET 19.6667 -0.0000 0.0000
					CHANNELS 3 Zrotation Xrotation Yrotation
					JOINT LeftElbow
					{
						OFFSET 27.2190 0.0000 0.0000
						CHANNELS 3 Zrotation Xrotation Yrotation
						JOINT LeftWrist
						{
							OFFSET 30.7431 0.0000 0.0000
							CHANNELS 3 Zrotation Xrotation Yrotation
							End Site
							{
								OFFSET 0.0000 -14.7500 0.0000
							}
						}
					}
				}
			}
			JOINT RightCollar
			{
				OFFSET -0.0000 26.2902 0.0000
				CHANNELS 3 Zrotation Xrotation Yrotation
				JOINT RightShoulder
				{
					OFFSET -19.6667 0.0000 0.0000
					CHANNELS 3 Zrotation Xrotation Yrotation
					JOINT RightElbow
					{
						OFFSET -27.2190 0.0000 0.0000
						CHANNELS 3 Zrotation Xrotation Yrotation
						JOINT RightWrist
						{
							OFFSET -30.7431 0.0000 0.0000
							CHANNELS 3 Zrotation Xrotation Yrotation
							End Site
							{
								OFFSET -0.0000 -14.7500 0.0000
							}
						}
					}
				}
			}
		}
	}
	JOINT LeftHip
	{
		OFFSET 11.8000 0.0000 0.0000
		CHANNELS 3 Zrotation Xrotation Yrotation
		JOINT LeftKnee
		{
			OFFSET -0.0000 -39.7832 0.0000
			CHANNELS 3 Zrotation Xrotation Yrotation
			JOINT LeftAnkle
			{
				OFFSET -0.0000 -41.7317 0.0000
				CHANNELS 3 Zrotation Xrotation Yrotation
				End Site
				{
					OFFSET -0.0000 -4.9167 16.7167
				}
			}
		}
	}
	JOINT RightHip
	{
		OFFSET -11.8000 0.0000 0.0000
		CHANNELS 3 Zrotation Xrotation Yrotation
		JOINT RightKnee
		{
			OFFSET -0.0000 -39.7832 0.0000
			CHANNELS 3 Zrotation Xrotation Yrotation
			JOINT RightAnkle
			{
				OFFSET -0.0000 -41.7317 0.0000
				CHANNELS 3 Zrotation Xrotation Yrotation
				End Site
				{
					OFFSET -0.0000 -4.9167 16.7167
				}
			}
		}
	}
}
MOTION
Frames: 18
Frame Time: 0.010000
-17.1224 97.0151 180.1336 358.8644 359.7240 179.0722 357.8396 348.5890 0.6945 2.6926 10.0163 0.6743 358.9409 357.2028 0.0719 356.2391 5.8098 0.2903 339.9390 357.5748 13.6905 319.1764 60.0026 338.5569 9.0504 357.3967 328.0483 84.0239 357.1376 346.7788 26.9126 356.0591 343.5770 45.8553 47.9512 4.0521 340.1253 354.6038 30.0520 271.3099 356.1267 8.3954 357.4223 4.1858 358.5590 357.5124 8.8127 359.4216 355.2020 350.3775 20.6629 358.8963 8.1119 9.3993 6.2206 5.0740 5.9338 350.9849 343.8623 319.4292 
-17.1600 97.0092 180.1243 358.8751 359.7100 179.0666 357.8483 348.5829 0.6952 2.6887 10.0309 0.6724 358.9087 357.1617 0.0763 356.2489 5.8464 0.2924 339.9263 357.5799 13.6745 319.0830 59.9407 338.6798 8.9933 357.4100 328.0048 84.1351 357.1422 346.7797 26.9167 356.0292 343.5741 45.8420 47.9576 4.0609 340.0894 354.5996 30.0386 271.2878 356.1063 8.3627 357.4087 4.1591 358.5559 357.5064 8.8544 359.3928 355.2592 350.3533 20.6869 358.8785 8.0992 9.4338 6.2276 5.0851 5.9544 350.9787 343.8635 319.3804 
-17.1995 97.0043 180.1178 358.8765 359.6889 179.0580 357.8479 348.5713 0.6908 2.6819 10.0438 0.6695 358.8503 357.1588 0.0722 356.3076 5.8293 0.2832 339.9217 357.5593 13.6804 319.0736 59.9369 338.6794 9.0171 357.3963 328.0174 84.0357 357.1404 346.7129 26.9466 356.0440 343.5821 45.8096 47.8811 4.0358 340.1661 354.6102 30.0981 271.2206 356.1520 8.3454 357.3837 4.1182 358.5734 357.5075 8.9041 359.3627 355.2765 350.3259 20.7010 358.8525 8.0731 9.4352 6.2302 5.1020 5.9717 351.0370 343.8213 319.3750 
-17.2381 96.9988 180.1074 358.8888 359.6837 179.0592 357.8647 348.5882 0.6776 2.6595 10.0258 0.6571 358.7566 357.2023 0.0802 356.4425 5.7681 0.2840 339.9232 357.5689 13.6855 319.0441 59.9205 338.7227 8.9763 357.4155 327.9906 84.1981 357.1524 346.7777 26.9838 356.0463 343.5927 45.7801 47.8711 4.0099 340.1616 354.6105 30.1252 271.2103 356.2269 8.2291 357.3733 4.0937 358.5730 357.4998 8.9551 359.3298 355.3086 350.2888 20.7266 358.8420 8.0695 9.4315 6.2263 5.1131 5.9612 351.0424 343.8096 319.3835 
-17.2781 96.9930 180.0953 358.8988 359.6707 179.0496 357.8660 348.5812 0.6756 2.6570 10.0359 0.6569 358.7009 357.2191 0.0814 356.5031 5.7342 0.2848 339.9185 357.5598 13.7040 319.0493 59.9233 338.7105 8.9842 357.4148 327.9884 84.3751 357.1597 346.8784 26.9877 356.0414 343.6051 45.7827 47.8755 3.9934 340.1616 354.6027 30.1186 271.2133 356.1995 8.2549 357.3592 4.0692 358.5616 357.4882 8.9960 359.3032 355.3415 350.2571 20.7655 358.8246 8.0553 9.4433 6.2288 5.1279 5.9386 351.0703 343.7865 319.4027 
-17.3161 96.9874 180.0807 358.9146 359.6638 179.0329 357.8708 348.5734 0.6778 2.6568 10.0611 0.6582 358.6494 357.2175 0.0699 356.5455 5.7059 0.2718 339.9075 357.5691 13.7357 319.1469 59.9210 338.5937 8.9359 357.4240 328.0216 84.4270 357.1444 346.8944 26.9983 356.0413 343.6134 45.7878 47.8550 3.9661 340.1758 354.6123 30.1326 271.2427 356.1998 8.2885 357.3542 4.0553 358.5558 357.4695 9.0351 359.2941 355.3595 350.2324 20.8032 358.8156 8.0464 9.4501 6.2243 5.1492 5.9570 351.0707 343.7647 319.3998 
-17.3577 96.9823 180.0665 358.9260 359.6546 179.0252 357.8748 348.5661 0.6758 2.6557 10.0833 0.6509 358.5929 357.2139 0.0626 356.5925 5.6746 0.2633 339.9045 357.5493 13.7623 319.2106 59.9547 338.5060 8.9647 357.4196 328.0657 84.4302 357.1114 346.9392 27.0126 356.0585 343.6148 45.7758 47.8422 3.9595 340.1815 354.6168 30.1401 271.2552 356.1922 8.2436 357.3404 4.0330 358.5314 357.4579 9.0766 359.2976 355.3519 350.1972 20.8236 358.7998 8.0363 9.4552 6.2225 5.1670 5.9516 351.0942 343.7346 319.4095 
-17.4019 96.9765 180.0507 358.9381 359.6498 179.0177 357.8760 348.5651 0.6725 2.6548 10.1013 0.6515 358.5464 357.2029 0.0556 356.6344 5.6615 0.2561 339.8998 357.5652 13.7749 319.2569 59.9684 338.4610 8.9166 357.4304 328.0810 84.3259 357.0917 346.8719 27.0216 356.0483 343.6249 45.7954 47.8058 3.9280 340.1604 354.6010 30.1393 271.2703 356.1625 8.3009 357.3273 4.0177 358.5026 357.4393 9.1224 359.2893 355.4405 350.1783 20.8684 358.7809 8.0273 9.4523 6.2268 5.1949 5.9650 351.1133 343.7117 319.3931 
-17.4483 96.9716 180.0296 358.9423 359.6541 179.0095 357.8650 348.5639 0.6702 2.6565 10.1296 0.6490 358.5125 357.1720 0.0604 356.6579 5.6742 0.2557 339.8938 357.5448 13.7683 319.2363 59.9813 338.4926 8.9794 357.4040 328.0207 84.6629 357.3189 347.3297 27.0240 356.0637 343.6370 45.8306 47.7947 3.8836 340.1849 354.6052 30.1372 271.2871 356.1547 8.3595 357.3024 4.0137 358.5024 357.4354 9.1660 359.2485 355.4710 350.1413 20.9078 358.7542 8.0362 9.4726 6.2272 5.2075 5.9331 351.1600 343.6811 319.4129 
-17.4954 96.9656 180.0164 358.9483 359.6408 178.9873 357.8602 348.5588 0.6752 2.6642 10.1566 0.6532 358.4680 357.1367 0.0508 356.6696 5.6672 0.2516 339.8742 357.5440 13.7496 319.1698 59.9179 338.5933 8.9461 357.4211 328.0010 84.6204 357.1718 347.1188 27.0103 356.0682 343.6393 45.8741 47.8083 3.8703 340.0677 354.5609 30.1614 271.8413 355.8978 7.5671 357.2730 3.9872 358.5266 357.4339 9.2166 359.2413 355.5126 350.1121 20.9066 358.7256 8.0156 9.5327 6.2318 5.2288 5.8911 351.2006 343.6416 319.4200 
-17.5501 96.9628 180.0006 358.9485 359.6284 178.9701 357.8756 348.5540 0.6706 2.6263 10.1816 0.6517 358.4127 357.1050 0.0450 356.7192 5.6666 0.2465 339.8812 357.5672 13.7360 319.1129 59.8635 338.6579 8.9547 357.4385 327.9711 84.6136 357.1746 347.1038 27.0165 356.0407 343.6350 45.9033 47.8527 3.8459 340.0222 354.5536 30.1519 271.9448 355.9261 7.5312 357.2333 3.9691 358.5149 357.4299 9.2438 359.2547 355.5547 350.0887 20.9291 358.6827 7.9910 9.5538 6.2456 5.2638 5.8712 351.2112 343.6165 319.4346 
-17.6020 96.9556 179.9915 358.9583 359.6029 178.9629 357.8822 348.5434 0.6631 2.6113 10.1976 0.6431 358.3375 357.1227 0.0429 356.7953 5.5989 0.2399 339.8852 357.5553 13.7387 319.0858 59.8549 338.6751 8.9907 357.4243 327.9899 84.5884 357.1617 347.0748 27.0296 356.0583 343.6637 45.9342 47.8022 3.7845 340.0773 354.5562 30.1884 271.9658 355.9875 7.6256 357.2061 3.9189 358.5025 357.4323 9.3077 359.2355 355.5512 350.0508 20.9457 358.6557 7.9395 9.5036 6.2495 5.3306 5.9364 351.2236 343.5913 319.4269 
-17.6545 96.9498 179.9803 358.9716 359.5848 178.9587 357.8791 348.5402 0.6564 2.6186 10.2190 0.6347 358.2573 357.1431 0.0423 356.8655 5.5274 0.2322 339.8721 357.5617 13.7434 319.0897 59.8152 338.6781 8.9520 357.4380 327.9854 84.5707 357.1371 346.9987 27.0341 356.0564 343.6781 45.9387 47.7748 3.7686 340.1025 354.5918 30.1736 271.7244 355.9872 7.8619 357.1878 3.8815 358.4629 357.4166 9.3586 359.2245 355.6317 350.0138 21.0028 358.6346 7.8992 9.4752 6.2559 5.3853 5.9411 351.2420 343.5501 319.4464 
-17.7097 96.9446 179.9635 358.9834 359.5697 178.9329 357.8858 348.5328 0.6614 2.6081 10.2444 0.6406 358.1990 357.1347 0.0350 356.9188 5.4929 0.2260 339.8671 357.5415 13.7806 319.1997 59.8701 338.5543 8.9816 357.4258 328.0269 84.5118 357.1334 347.0310 27.0366 356.0549 343.6864 45.9574 47.8059 3.7538 340.1372 354.6028 30.1202 271.3061 356.1085 8.4415 357.1626 3.8532 358.4448 357.4070 9.4072 359.2194 355.6532 349.9731 21.0545 358.6044 7.8618 9.4464 6.2620 5.4461 5.9906 351.2686 343.5062 319.4435 
-17.7628 96.9385 179.9500 359.0025 359.5565 178.9122 357.8874 348.5341 0.6648 2.6127 10.2709 0.6430 358.1563 357.1134 0.0218 356.9379 5.4567 0.2122 339.8441 357.5361 13.8126 319.3450 59.9071 338.4270 8.9382 357.4281 328.0342 84.5374 357.1466 347.0715 27.0403 356.0509 343.6758 45.9336 47.8367 3.7762 340.1409 354.6053 30.1122 271.2282 356.1206 8.3904 357.1497 3.8197 358.4415 357.3894 9.4689 359.2038 355.6931 349.9381 21.0703 358.5876 7.8246 9.4119 6.2615 5.5088 6.0323 351.2951 343.4644 319.4483 
-17.8194 96.9325 179.9351 359.0166 359.5454 178.8940 357.8859 348.5428 0.6661 2.6129 10.2843 0.6444 358.1148 357.0926 0.0139 356.9604 5.4375 0.2048 339.8262 357.5440 13.8112 319.3670 59.8818 338.4314 8.9222 357.4435 328.0201 84.4844 357.1439 347.0562 27.0580 356.0534 343.6822 45.9092 47.7930 3.7638 340.1935 354.5990 30.1351 271.2075 356.1188 8.4446 357.1197 3.7838 358.4492 357.3932 9.5405 359.1840 355.6871 349.8845 21.1118 358.5613 7.7855 9.3565 6.2677 5.5839 6.0910 351.3120 343.4177 319.4470 
-17.8789 96.9258 179.9199 359.0274 359.5319 178.8698 357.8953 348.5617 0.6674 2.5901 10.2720 0.6482 358.3118 357.0954 0.1113 356.7625 5.3331 0.3070 339.8454 357.5383 13.8164 319.3045 59.9041 338.4797 8.9899 357.4355 328.0316 84.4219 357.1267 347.1025 27.0777 356.0605 343.6958 45.9143 47.7656 3.7288 340.1734 354.6009 30.1781 271.6128 355.9586 7.8319 357.0868 3.7481 358.4413 357.3893 9.6066 359.1837 355.7640 349.8499 21.1301 358.5252 7.7382 9.3338 6.2812 5.6640 6.1428 351.3380 343.3654 319.4336 
-17.9350 96.9179 179.9025 359.0503 359.5179 178.8451 357.9012 348.5702 0.6690 2.5932 10.2862 0.6481 358.3802 357.1129 0.0631 356.5181 5.3273 0.2661 339.8438 357.5232 13.8191 319.2600 59.8819 338.5353 8.9810 357.4294 328.0636 84.0433 357.0638 346.8167 27.0701 356.0493 343.6782 45.9043 47.8370 3.7678 340.0876 354.5903 30.1500 271.7863 355.8945 7.4371 357.0731 3.7187 358.4338 357.3759 9.6636 359.1734 355.8286 349.8152 21.1545 358.5096 7.6995 9.3307 6.2856 5.7267 6.1467 351.3694 343.3260 319.4481 
